<svg width="47" height="31" viewBox="0 0 47 31" fill="none" xmlns="http://www.w3.org/2000/svg">
<path d="M0 15.5836C0 13.4997 1.62106 11.8103 3.62074 11.8103H41.958C43.9577 11.8103 45.5788 13.4997 45.5788 15.5836C45.5788 17.6676 43.9577 19.357 41.958 19.357H3.62074C1.62106 19.357 0 17.6676 0 15.5836Z" fill="white"/>
<path d="M25.1684 1.51625C26.3647 -0.153683 28.6334 -0.496789 30.2358 0.7499L45.5451 12.6607C47.1475 13.9074 47.4767 16.2718 46.2804 17.9417C45.0842 19.6117 42.8154 19.9548 41.213 18.7081L25.9038 6.79725C24.3014 5.55056 23.9721 3.18618 25.1684 1.51625Z" fill="white"/>
<path d="M46.2804 13.0583C45.0841 11.3883 42.8154 11.0452 41.213 12.2919L25.9037 24.2028C24.3014 25.4494 23.9721 27.8138 25.1684 29.4838C26.3647 31.1537 28.6334 31.4968 30.2358 30.2501L45.5451 18.3393C47.1475 17.0926 47.4767 14.7282 46.2804 13.0583Z" fill="white"/>
</svg>
