<svg width="47" height="31" viewBox="0 0 47 31" fill="none" xmlns="http://www.w3.org/2000/svg">
<path d="M47 15.5836C47 13.4997 45.3789 11.8103 43.3793 11.8103H5.04199C3.0423 11.8103 1.42124 13.4997 1.42124 15.5836C1.42124 17.6676 3.0423 19.357 5.04199 19.357H43.3793C45.3789 19.357 47 17.6676 47 15.5836Z" fill="white"/>
<path d="M21.8316 1.51625C20.6353 -0.153683 18.3666 -0.496789 16.7642 0.7499L1.45493 12.6607C-0.147468 13.9074 -0.476696 16.2718 0.719572 17.9417C1.91584 19.6117 4.18461 19.9548 5.787 18.7081L21.0962 6.79725C22.6986 5.55056 23.0279 3.18618 21.8316 1.51625Z" fill="white"/>
<path d="M0.719582 13.0583C1.91585 11.3883 4.18461 11.0452 5.78701 12.2919L21.0963 24.2028C22.6986 25.4494 23.0279 27.8138 21.8316 29.4838C20.6353 31.1537 18.3666 31.4968 16.7642 30.2501L1.45493 18.3393C-0.147459 17.0926 -0.476687 14.7282 0.719582 13.0583Z" fill="white"/>
</svg>
